<svg width="340" height="27" viewBox="0 0 340 27" fill="none" xmlns="http://www.w3.org/2000/svg">
<path d="M6.16655 2.98164C8.80672 2.905 11.1135 4.53356 11.65 6.82503C11.7803 7.37299 11.7343 7.69104 11.0522 7.59524C10.7725 7.55692 10.4774 7.56075 10.1939 7.59524C9.45815 7.68337 9.05196 7.46496 8.66111 6.72923C7.63416 4.80179 4.58014 4.98189 3.42674 6.95915C2.51092 8.53022 2.64887 11.3697 3.74096 12.7798C4.49584 13.7531 5.54961 14.0405 6.71834 13.9064C7.75678 13.7876 8.57298 13.1975 8.81056 12.205C9.06346 11.1474 9.64591 11.0171 10.5694 11.0593C12.0217 11.1321 12.0217 11.0784 11.6078 12.4962C10.2973 16.9872 4.93268 16.9795 2.44961 15.1287C-0.956943 12.5882 -0.861145 6.05865 3.05505 3.77101C3.85208 3.30352 4.94417 3.0123 6.16272 2.97781L6.16655 2.98164ZM34.3233 6.77905C34.1969 6.79821 34.0666 6.79821 33.9401 6.77905C33.1737 6.6526 32.894 6.90933 32.9208 7.74085C32.9821 9.93653 32.94 12.136 32.94 14.3355C32.94 16.0522 32.94 16.0139 34.6414 16.0522C35.3656 16.0714 35.5687 15.8606 35.5495 15.1441C35.5074 13.5845 35.515 12.0211 35.5878 10.4653C35.6453 9.18931 36.3197 8.54555 37.385 8.56854C38.4426 8.59153 38.9906 9.17015 39.0442 10.4615C39.0978 11.703 39.0672 12.9446 39.071 14.1861C39.071 16.2208 39.071 16.2055 41.1058 16.0407C41.5119 16.0062 41.6767 15.8836 41.6614 15.4774C41.6001 13.3469 41.8032 11.2087 41.5158 9.08202C41.3203 7.65655 40.5463 6.85569 39.1323 6.61044C37.7528 6.36904 36.5458 6.71007 35.3541 8.02441C35.584 6.8097 35.0552 6.67175 34.3195 6.77522L34.3233 6.77905ZM31.0432 13.8681C31.1352 13.6611 31.4072 13.2051 30.9704 13.2051C30.181 13.2051 29.3533 12.8679 28.6253 13.7071C27.5638 14.9333 25.4448 14.4275 24.962 12.9292C24.7819 12.3774 24.7512 11.9713 25.5904 11.9981C27.3071 12.0517 29.0315 12.0211 30.7481 12.0058C31.024 12.0058 31.3996 12.1705 31.503 11.6724C31.9054 9.75643 30.0699 7.04345 28.0697 6.67942C26.2648 6.34988 24.6133 6.69858 23.4292 8.18152C22.0268 9.93653 21.9118 11.9329 22.8774 13.9025C23.6936 15.5732 25.2226 16.2285 27.0427 16.2515C28.9203 16.2668 30.3688 15.4161 31.047 13.8681H31.0432ZM25.8165 10.4462C25.5176 10.4232 25.1114 10.6148 24.9467 10.3006C24.7781 9.97868 25.0348 9.64914 25.2111 9.34642C25.7399 8.43826 26.602 8.46508 27.4642 8.56471C28.2804 8.65668 28.5793 9.30427 28.8169 9.97868C28.9203 10.2814 28.836 10.4615 28.4758 10.4538C27.9394 10.4423 27.3991 10.4538 26.8626 10.4538C26.5139 10.4538 26.1652 10.473 25.8165 10.45V10.4462ZM44.2173 5.28844C44.2173 5.54135 44.1943 5.80191 44.2211 6.05099C44.2824 6.60278 44.1176 6.92083 43.4969 6.81737C42.7956 6.69858 42.65 7.03578 42.6653 7.67571C42.6768 8.25433 42.7726 8.61069 43.4432 8.49957C44.1023 8.38844 44.2364 8.72182 44.2287 9.31193C44.2019 10.8715 44.2173 12.4311 44.2402 13.9907C44.2556 14.9372 44.6349 15.6767 45.6197 15.9181C46.4206 16.1135 47.233 16.2247 48.0721 16.0752C49.1106 15.8951 48.4668 15.1287 48.6048 14.6459C48.7427 14.1631 48.4093 14.0673 47.9917 14.1095C46.9877 14.2168 46.7233 13.6266 46.731 12.7645C46.7425 11.6494 46.7846 10.5343 46.7157 9.42305C46.6658 8.62602 46.9877 8.39227 47.7043 8.49574C48.371 8.59153 48.6431 8.39611 48.6546 7.63739C48.6661 6.8212 48.2867 6.72923 47.6775 6.81737C46.9034 6.92849 46.6237 6.59512 46.731 5.85173C46.7578 5.66397 46.7386 5.46854 46.731 5.28078C46.7118 3.82083 46.8996 4.02008 45.4703 3.99709C44.0295 4.02008 44.2364 3.82083 44.2173 5.28078V5.28844ZM16.095 4.87843C16.095 3.25754 16.095 3.30735 14.4818 3.25371C13.6847 3.22688 13.5468 3.52194 13.5544 4.23467C13.5889 7.60674 13.5698 10.9826 13.5698 14.3547C13.5698 16.0637 13.5698 16.0292 15.2711 16.0522C15.957 16.0637 16.1256 15.8415 16.1103 15.1862C16.0682 13.3737 16.095 11.5574 16.095 9.74493C16.095 8.12021 16.095 6.49932 16.095 4.8746V4.87843ZM18.1642 14.393C18.1642 16.0522 18.1642 16.0139 19.8081 16.0561C20.5285 16.0752 20.7239 15.8645 20.7086 15.1517C20.6626 12.9561 20.6894 10.7604 20.6894 8.56471C20.6894 6.7369 20.6894 6.75989 18.8463 6.80204C18.2907 6.81353 18.145 6.99747 18.1565 7.52244C18.1872 8.82528 18.168 10.132 18.1642 11.4348C18.1642 12.4196 18.1642 13.4082 18.1642 14.393ZM75.2134 6.1008C75.3974 5.60266 75.3974 5.31526 74.7804 5.14666C72.945 4.63702 71.3241 4.9474 69.9637 6.30389C69.4541 6.81354 68.7759 7.49178 69.0249 8.15853C69.2893 8.87509 70.2626 8.72948 70.8566 8.78696C72.853 8.80995 74.631 7.66805 75.2134 6.10463V6.1008ZM61.5182 8.64135C62.5873 8.35779 62.664 8.15853 62.1428 7.19672C61.1236 5.3191 58.7401 4.42243 56.7169 5.1275C56.1306 5.33442 55.9735 5.62948 56.2686 6.1966C57.1269 7.82132 58.4412 8.71415 60.4185 8.80612C60.7021 8.76397 61.1197 8.74481 61.5144 8.64135H61.5182ZM64.6834 13.3392C64.4918 12.7223 64.2044 12.5537 63.5645 12.9139C61.6409 13.9983 60.6944 16.3166 61.3726 18.3974C61.6064 19.1177 61.9857 19.2978 62.641 18.8763C64.1163 17.9299 64.9133 16.604 64.944 14.6383C64.9784 14.3164 64.8328 13.8297 64.6796 13.3392H64.6834ZM68.818 18.838C69.5959 19.271 69.8335 19.1522 70.071 18.2671C70.5117 16.6462 70.2281 15.1709 69.1054 13.9102C68.5996 13.3431 67.9137 12.6074 67.2086 12.8411C66.4614 13.0863 66.5227 14.098 66.4614 14.7877C66.5112 16.6194 67.2584 17.972 68.8142 18.838H68.818ZM66.7526 5.82107C66.8867 6.15828 67.0323 6.30772 67.4615 6.13912C69.615 5.31143 70.8259 2.7364 70.071 0.567548C69.8526 -0.0570509 69.5231 -0.129857 68.9981 0.172863C67.4309 1.08102 66.4652 2.36087 66.4652 4.47225C66.4499 4.78646 66.5495 5.31526 66.7526 5.82107ZM62.2157 0.115384C61.7328 -0.103034 61.5757 -0.00723613 61.4033 0.464087C60.7787 2.1961 61.3152 4.25 62.733 5.37274C63.2349 5.77126 63.8519 6.3767 64.3807 6.13912C64.9746 5.87089 64.9018 4.98955 64.9325 4.51823C64.9593 2.39153 63.9707 0.904754 62.2157 0.115384ZM62.2195 11.6264C62.5452 11.0861 62.5031 10.7067 61.7865 10.519C60.0928 10.0745 58.583 10.404 57.284 11.5613C56.7399 12.0441 56.0003 12.6955 56.2226 13.3546C56.4563 14.0558 57.4564 13.8987 58.1155 13.9715C59.9817 14.0022 61.3037 13.1553 62.2195 11.6264ZM74.7766 13.7186C75.2019 13.5155 75.3207 13.3431 75.11 12.8679C74.2363 10.8868 71.4582 9.76026 69.4771 10.6033C68.9445 10.8294 68.9291 11.1014 69.1859 11.5459C70.071 13.1093 71.3777 13.9562 72.9641 13.9715C73.7343 13.9294 74.2631 13.9638 74.7804 13.7186H74.7766ZM20.7737 4.41477C20.7507 3.41464 20.4595 3.12725 19.5399 3.2652C19.2295 3.31118 18.9076 3.27287 18.5895 3.2767C18.3865 3.2767 18.2485 3.34184 18.168 3.56792C17.781 4.70983 18.2447 5.37657 19.4402 5.37274C20.1185 5.38041 20.7967 5.60266 20.7699 4.41094L20.7737 4.41477Z" fill="white"/>
<path d="M159.591 12.7794C159.981 11.5225 160.38 10.2695 160.755 9.00878C160.855 8.67541 161.02 8.47615 161.353 8.36502C162.725 7.91669 164.108 7.78641 165.511 8.18493C166.994 8.60643 167.814 9.66404 167.829 11.2849C167.856 14.0017 167.833 16.7186 167.841 19.4354C167.841 19.7381 167.73 19.853 167.427 19.853C165.545 19.8454 163.664 19.8454 161.782 19.853C161.445 19.853 161.369 19.6998 161.369 19.397C161.376 17.6076 161.376 15.8181 161.369 14.0286C161.369 13.358 161.054 13.0553 160.38 13.0361C159.713 13.0208 159.522 13.2047 159.522 13.8676C159.522 15.6954 159.514 17.5271 159.529 19.3549C159.529 19.7266 159.418 19.8607 159.039 19.8569C157.211 19.8415 155.379 19.8415 153.552 19.8569C153.184 19.8569 153.053 19.7457 153.053 19.3626C153.065 15.8487 153.065 12.3349 153.053 8.82102C153.053 8.41484 153.195 8.31138 153.578 8.31138C155.379 8.3267 157.184 8.31521 158.985 8.31904C159.51 8.31904 159.522 8.33054 159.522 8.8785C159.522 10.1698 159.522 11.465 159.522 12.7564C159.541 12.764 159.56 12.7717 159.583 12.7755L159.591 12.7794ZM147.298 14.3773C147.421 14.3773 147.547 14.3773 147.67 14.3773C149.172 14.3773 150.674 14.3696 152.176 14.3849C152.536 14.3849 152.647 14.2661 152.64 13.9059C152.597 11.3309 150.942 9.13907 148.486 8.36886C146.907 7.87454 145.298 7.7136 143.658 7.83239C142.213 7.93585 140.822 8.24624 139.523 8.91298C136.262 10.5837 135.714 14.1397 136.936 16.7109C137.622 18.1555 138.856 19.0177 140.301 19.6078C141.956 20.286 143.692 20.4125 145.455 20.3435C147.24 20.2745 148.903 19.8032 150.402 18.8108C151.279 18.2322 151.98 17.4926 152.371 16.4886C152.471 16.2281 152.41 16.1131 152.149 16.0326C151.524 15.8449 150.908 15.6341 150.287 15.431C149.287 15.1015 148.29 14.7719 147.29 14.4424C147.29 14.4194 147.298 14.3964 147.302 14.3734L147.298 14.3773ZM146.355 14.3773C146.7 14.3773 146.75 14.4654 146.593 14.772C146.451 15.0478 146.233 15.2586 145.941 15.3659C145.087 15.6724 144.232 15.6954 143.386 15.3391C143.102 15.2203 142.868 15.0364 142.726 14.7528C142.604 14.5076 142.623 14.3658 142.953 14.3734C143.527 14.3849 144.102 14.3734 144.677 14.3734C145.236 14.3734 145.8 14.3696 146.359 14.3734L146.355 14.3773ZM142.964 13.7143C142.627 13.7258 142.623 13.5687 142.726 13.3312C142.895 12.9518 143.244 12.7794 143.604 12.6721C144.294 12.4652 144.991 12.4766 145.685 12.6644C146.03 12.7602 146.336 12.9441 146.535 13.2507C146.731 13.5534 146.643 13.7029 146.286 13.7067C145.727 13.7105 145.167 13.7067 144.604 13.7067C144.056 13.7067 143.508 13.6952 142.964 13.7105V13.7143ZM116.746 13.9902C118.287 13.7143 119.827 13.4308 121.367 13.1664C121.701 13.1089 121.797 12.994 121.716 12.6491C121.272 10.668 119.992 9.41113 118.206 8.61793C116.639 7.92436 114.972 7.76342 113.271 7.8094C111.749 7.84772 110.286 8.11595 108.902 8.75588C105.913 10.143 104.917 12.9518 105.676 15.8104C106.17 17.6765 107.504 18.8108 109.217 19.5312C111.324 20.4202 113.527 20.5083 115.758 20.2056C117.229 20.0025 118.589 19.4967 119.77 18.5655C120.865 17.6995 121.502 16.5691 121.754 15.205C121.808 14.9214 121.743 14.7949 121.44 14.7758C121.103 14.7528 120.77 14.6876 120.432 14.6455C119.064 14.4654 117.693 14.2815 116.229 14.086C116.466 14.0401 116.604 14.0094 116.742 13.9826L116.746 13.9902ZM112.113 13.2239C112.811 12.6874 114.485 12.6108 115.217 13.0897C115.6 13.3427 115.846 13.6875 115.819 14.1627C115.792 14.6608 115.505 14.9827 115.06 15.1628C114.213 15.5038 113.351 15.4962 112.5 15.1896C111.949 14.9904 111.703 14.6033 111.707 14.0094C111.684 13.699 111.838 13.4346 112.117 13.22L112.113 13.2239ZM174.888 12.764V12.4537C174.888 10.7408 174.888 9.03177 174.888 7.31892C174.888 6.80544 174.865 6.78245 174.389 6.89358C172.55 7.33041 170.711 7.78258 168.868 8.21558C168.607 8.27689 168.504 8.39568 168.504 8.67158C168.515 10.9056 168.507 13.1396 168.519 15.3736C168.519 15.887 168.642 16.3852 168.837 16.8565C169.435 18.305 170.569 19.1748 171.991 19.7151C173.481 20.2822 175.022 20.3627 176.581 20.1558C177.581 20.0216 178.551 19.7611 179.417 19.2016C179.635 19.0598 179.739 18.8912 179.739 18.6268C179.735 15.3352 179.735 12.0436 179.739 8.75205C179.739 8.434 179.62 8.31138 179.298 8.31521C178.398 8.32671 177.493 8.3382 176.593 8.31138C176.187 8.29988 176.029 8.44549 175.937 8.83635C175.631 10.1545 175.282 11.465 174.949 12.7794C174.926 12.7755 174.903 12.7717 174.88 12.764H174.888ZM175.137 14.0171C175.01 13.8868 174.861 13.7297 174.945 13.5381C175.022 13.3618 175.225 13.4385 175.37 13.4385C176.639 13.4346 177.903 13.4346 179.172 13.4385C179.283 13.4385 179.44 13.381 179.49 13.5074C179.539 13.6339 179.398 13.7105 179.313 13.7833C178.601 14.4194 177.727 14.5957 176.815 14.657C176.19 14.6033 175.593 14.4884 175.133 14.0171H175.137ZM122.329 19.3779C122.329 19.7343 122.444 19.8607 122.801 19.8569C124.644 19.8454 126.483 19.8454 128.326 19.8569C128.679 19.8569 128.805 19.7457 128.805 19.3817C128.794 15.0708 128.794 10.76 128.805 6.44908C128.805 6.07738 128.694 5.9471 128.311 5.95093C126.495 5.96626 124.678 5.95859 122.862 5.95859C122.345 5.95859 122.333 5.97009 122.333 6.48356C122.333 8.6141 122.333 10.7408 122.333 12.8713C122.333 15.0402 122.341 17.209 122.325 19.3779H122.329ZM130.349 13.2315C132.024 12.8828 133.695 12.5265 135.373 12.1969C135.752 12.1241 135.89 11.9708 135.879 11.58C135.852 10.6527 135.856 9.72535 135.879 8.79803C135.887 8.43783 135.764 8.31904 135.408 8.31904C133.58 8.33054 131.748 8.33054 129.92 8.31904C129.552 8.31904 129.414 8.43783 129.414 8.81336C129.422 12.3272 129.422 15.841 129.414 19.3587C129.414 19.7266 129.533 19.8645 129.913 19.8607C131.74 19.8454 133.572 19.8492 135.4 19.8607C135.745 19.8607 135.883 19.7611 135.879 19.3894C135.864 17.5347 135.86 15.6801 135.879 13.8216C135.883 13.4231 135.756 13.3082 135.365 13.312C133.63 13.3312 131.89 13.3197 130.043 13.3197C130.215 13.2698 130.284 13.2469 130.353 13.2315H130.349ZM186.64 26.0569H99.6559V0H186.64V26.0569ZM100.039 25.6737H186.257V0.383189H100.039V25.6737Z" fill="white"/>
<path d="M222.724 1.49128C223.632 1.56792 224.218 0.905004 224.954 0.567797C225.195 0.456672 225.391 0.257414 225.624 0.127129C225.965 -0.0644652 226.31 -0.03381 226.64 0.180776C226.985 0.406858 226.931 0.717241 226.858 1.05445C226.732 1.64073 226.893 2.3458 226.019 2.64852C226.448 2.85927 226.648 2.62936 226.858 2.52973C227.295 2.3228 227.736 2.18102 228.058 2.65235C228.414 3.17348 227.985 3.51452 227.632 3.75976C225.946 4.94382 224.398 6.29648 222.808 7.59932C222.582 7.78325 222.36 7.97485 222.18 8.23158C223.149 7.94419 223.931 7.3081 224.793 6.82145C225.548 6.39227 226.322 6.01675 227.134 5.7102C227.598 5.53393 227.954 5.59524 228.23 6.00142C228.51 6.41527 228.219 6.71415 228.016 7.04753C226.816 9.02479 224.889 10.2127 223.065 11.5922C223.459 11.7761 223.712 11.527 223.977 11.4044C225.031 10.9139 226.08 10.4081 227.13 9.91379C227.483 9.74901 227.839 9.54592 228.192 9.92145C228.533 10.2816 228.326 10.6189 228.111 10.9714C228.518 11.0595 228.751 10.7645 229.05 10.6802C229.422 10.5767 229.759 10.5384 229.989 10.9331C230.223 11.3316 230.046 11.6228 229.732 11.8566C228.724 12.5961 227.713 13.3242 226.613 14.1212C227.065 14.24 227.387 14.0522 227.713 13.9219C228.073 13.7763 228.426 13.6116 228.786 13.4736C228.951 13.4123 229.138 13.3472 229.307 13.3625C229.59 13.3931 229.954 13.6422 229.809 13.853C229.437 14.3971 230.786 15.0332 229.679 15.4547C227.72 16.2019 225.931 17.2978 224.027 18.1562C223.39 18.4436 222.758 18.8689 222.026 18.3171C221.77 18.1255 221.455 18.344 221.176 18.4283C220.551 18.6237 219.969 18.9685 219.302 19.0145C218.612 19.0605 218.145 18.8306 218.382 18.0297C218.505 17.6121 218.394 17.5546 218.018 17.6351C217.328 17.7807 216.83 17.6925 216.857 16.792C216.869 16.4587 215.608 16.0946 215.217 16.2977C214.527 16.6541 213.861 17.0526 213.163 17.3898C212.619 17.6542 211.197 16.999 211.013 16.4357C210.864 15.9758 211.186 15.6961 211.454 15.4355C212.435 14.4814 213.439 13.5541 214.447 12.5999C214.075 12.2627 213.857 12.4428 213.638 12.4543C213.466 12.4658 213.19 12.5195 213.129 12.4352C212.742 11.8757 212.27 11.3239 212.083 10.6917C211.922 10.1552 212.243 9.63023 212.822 9.30835C213.155 9.12058 213.523 8.85235 213.332 8.31205C213.224 8.00933 213.443 7.73727 213.642 7.51119C215.88 4.95532 218.509 2.87077 221.409 1.11576C221.793 0.885844 222.172 0.648267 222.57 0.45284C222.85 0.314892 223.207 0.0773149 223.448 0.45284C223.686 0.81687 223.371 1.05062 223.095 1.24604C222.977 1.33034 222.85 1.40315 222.728 1.48362L222.724 1.49128ZM268.515 14.6155C268.488 13.3931 268.496 12.1708 268.496 10.9446C268.496 9.47695 268.634 9.27769 270.013 8.7259C271.527 8.12046 272.412 8.62627 272.515 10.2472C272.592 11.435 272.5 12.6344 272.577 13.8261C272.626 14.5887 272.113 15.6348 272.784 16.041C273.362 16.3897 274.335 16.087 275.201 16.0755C274.768 15.4279 274.776 14.719 274.776 14.0024C274.776 12.8414 274.776 11.6765 274.715 10.5154C274.585 8.16261 273.255 7.25828 270.979 7.87522C270.105 8.11279 269.431 8.71823 268.534 9.09376C268.534 8.87917 268.507 8.73356 268.538 8.60711C268.737 7.82157 268.419 7.62614 267.672 7.74876C266.94 7.86755 266.189 7.88671 265.449 7.95186C266.281 8.07064 266.3 8.63776 266.285 9.30451C266.25 10.7645 266.254 12.2282 266.285 13.692C266.3 14.4852 265.909 15.6118 266.415 15.9797C266.955 16.3744 268.013 16.0678 268.994 16.0678C268.545 15.6348 268.526 15.1175 268.515 14.6155ZM239.998 15.06C238.354 14.286 237.423 12.9448 236.921 11.2358C236.542 9.94827 236.499 8.66459 236.764 7.36174C237.04 6.00142 237.737 4.95148 239.117 4.35371C237.603 4.04716 234.955 6.0589 234.319 8.20859C233.43 11.2205 234.576 14.1749 237.526 15.7038C239.764 16.8648 243.922 16.451 244.933 14.5849C243.247 15.4509 241.649 15.8341 239.998 15.0562V15.06ZM249.762 14.3588C249.758 10.8104 249.765 7.25828 249.75 3.70995C249.75 3.40723 249.949 3.07769 249.677 2.73665C248.685 3.31143 247.547 3.572 246.37 4.41885C247.225 4.22726 247.597 4.33072 247.585 5.07794C247.543 8.56879 247.558 12.0596 247.52 15.5467C247.516 15.972 247.551 16.1483 248.01 16.1329C248.811 16.11 249.612 16.1253 250.413 16.1253C249.8 15.6195 249.762 14.9872 249.762 14.3549V14.3588ZM280.413 15.8034C279.823 15.8762 279.666 15.6616 279.673 15.0792C279.708 13.0215 279.704 10.9599 279.677 8.90217C279.669 8.38486 279.769 8.15111 280.355 8.17027C280.796 8.1856 281.616 8.38486 281.608 7.98634C281.597 7.51885 280.815 7.76409 280.394 7.78325C279.761 7.81008 279.646 7.55334 279.677 7.00538C279.715 6.29648 279.685 5.58758 279.685 4.74839C278.566 5.26953 277.504 5.76384 276.447 6.26199L276.267 6.55705C277.616 6.17769 277.455 6.96323 277.455 7.61465C277.455 10.2395 277.47 12.8682 277.428 15.493C277.42 15.9605 277.623 16.0103 277.957 16.1253C279.236 16.566 280.451 16.3514 281.823 15.7919C281.237 15.7919 280.819 15.7536 280.409 15.7996L280.413 15.8034ZM263.116 15.2593C260.636 15.7191 259.096 14.6423 258.632 12.1708C258.517 11.55 258.613 11.3124 259.299 11.3316C260.583 11.3737 261.866 11.3622 263.15 11.3239C264.055 11.2971 264.583 10.6763 264.472 9.79883C264.38 9.08226 264.001 8.5458 263.334 8.20093C261.709 7.35408 260.089 7.56483 258.563 8.3542C256.395 9.48078 255.739 12.1286 256.785 14.0944C257.709 15.8264 259.334 16.3054 261.184 16.2134C262.15 16.1674 263.093 16.0448 264.005 15.1558C263.556 15.2056 263.33 15.2171 263.112 15.2593H263.116ZM259.613 11.048C258.445 11.048 258.414 11.0059 258.732 9.84864C259.027 8.77188 259.801 7.99784 260.633 7.94802C261.41 7.89821 262.219 8.53814 262.518 9.44246C262.87 10.5001 262.587 10.9254 261.491 10.9905C261.135 11.0135 260.778 11.0442 260.682 11.048C260.15 11.048 259.882 11.048 259.613 11.048ZM252.252 9.09376C252.225 10.6725 252.241 12.2512 252.245 13.83C252.245 14.5657 251.969 15.562 252.34 15.9682C252.785 16.4548 253.797 16.0793 254.563 16.1253C254.636 16.1291 254.712 16.0985 254.816 16.0793C254.54 15.5467 254.421 15.014 254.429 14.4431C254.456 12.3892 254.448 10.3353 254.509 8.2814C254.525 7.76026 254.352 7.68362 253.919 7.73344C253.122 7.81774 252.321 7.87905 251.52 7.94802C252.256 8.07064 252.268 8.53814 252.26 9.09759L252.252 9.09376ZM245.359 6.09339C245.688 5.68337 245.566 5.47262 245.205 5.16224C244.236 4.32688 243.106 3.97435 241.86 3.87855C240.684 3.78659 239.917 3.87855 239.377 4.2081C242.696 4.29623 243.788 5.48412 243.466 8.61477C244.094 7.77176 244.703 6.91724 245.355 6.09339H245.359ZM253.268 3.93986C252.494 3.93986 251.988 4.46866 252.042 5.24654C252.095 5.99759 252.547 6.35779 253.272 6.38078C253.946 6.39994 254.548 5.79067 254.536 5.14691C254.525 4.4725 253.961 3.93986 253.268 3.93986Z" fill="white"/>
<path d="M319.484 12.18C318.196 11.6053 317.162 10.7469 316.675 9.38658C315.962 7.40166 316.372 5.57768 317.595 3.91847C318.561 2.60796 319.863 1.71896 321.346 1.07137C323.86 -0.0283801 326.473 -0.208479 329.152 0.201534C329.278 0.220693 329.401 0.259012 329.524 0.293499C329.616 0.320322 329.704 0.354809 329.815 0.389296C329.424 1.10969 329.037 1.80327 328.677 2.50833C328.531 2.79189 328.359 2.81488 328.064 2.76507C325.577 2.33973 323.155 2.54665 320.875 3.68473C319.633 4.30166 318.614 5.19832 317.959 6.45135C316.894 8.48609 317.468 10.7852 319.361 12.0881C319.407 12.1187 319.45 12.1532 319.492 12.1839L319.484 12.18ZM332.014 19.5756C331.995 19.5373 331.98 19.499 331.961 19.4645C331.236 18.131 330.497 16.8013 329.788 15.4601C329.294 14.529 329.313 14.5328 328.271 14.5213C327.968 14.5213 327.857 14.5711 327.857 14.9083C327.876 16.9009 327.864 18.8897 327.864 20.8823C327.864 21.5822 328.219 21.9169 328.93 21.8862C328.972 21.8862 329.014 21.8862 329.056 21.8862C329.183 21.8862 329.228 21.8172 329.228 21.6985C329.202 20.591 329.286 19.4836 329.179 18.3762C329.129 17.8819 329.114 17.3837 329.079 16.8511C329.301 16.9584 329.328 17.127 329.397 17.2573C330.075 18.5142 330.819 19.7442 331.401 21.047C331.742 21.8096 332.21 21.9667 332.942 21.9015C333.256 21.8747 333.34 21.8058 333.34 21.4915C333.325 19.4568 333.332 17.4221 333.332 15.3873C333.332 14.5252 333.332 14.5481 332.47 14.5175C332.064 14.5022 331.945 14.598 331.953 15.0233C331.987 16.5254 331.915 18.0313 332.133 19.5258C332.095 19.5411 332.053 19.5603 332.014 19.5756ZM326.661 21.457C326.676 20.7558 326.669 20.7558 325.987 20.7558C325.121 20.7558 324.251 20.7405 323.385 20.7635C323.055 20.7711 322.967 20.6677 322.986 20.3535C323.013 19.9281 323.009 19.499 322.986 19.0736C322.971 18.7786 323.086 18.7134 323.354 18.7211C323.852 18.7402 324.35 18.7249 324.849 18.7249C325.695 18.7249 325.684 18.7249 325.665 17.8896C325.657 17.6367 325.565 17.5792 325.339 17.5868C324.925 17.6022 324.515 17.6022 324.101 17.5868C323.749 17.5753 323.301 17.7401 323.071 17.5179C322.841 17.2956 323.005 16.8434 322.998 16.4947C322.986 15.6747 322.994 15.6747 323.822 15.6747C324.577 15.6747 325.328 15.6824 326.083 15.6747C326.519 15.6671 326.661 15.4103 326.676 14.8355C326.688 14.3527 326.351 14.5405 326.148 14.5366C324.783 14.5213 323.416 14.5443 322.051 14.5213C321.695 14.5175 321.603 14.6095 321.603 14.9658C321.618 16.5024 321.599 18.0352 321.592 19.5718C321.595 20.2079 321.626 20.8478 321.599 21.4839C321.584 21.8326 321.706 21.9015 322.028 21.9015C323.515 21.8901 325.006 21.9054 326.493 21.913C326.776 21.8479 326.653 21.618 326.657 21.4609L326.661 21.457ZM319.871 11.6167C319.254 10.8695 319.139 10.038 319.465 9.14134C319.825 8.14888 320.591 7.5626 321.523 7.17175C322.986 6.55481 324.508 6.55098 326.048 6.7809C326.194 6.80389 326.37 6.90352 326.47 6.71575C326.841 6.04134 327.198 5.35926 327.581 4.6427C327.182 4.58905 326.86 4.53157 326.539 4.50475C324.584 4.32848 322.664 4.42045 320.906 5.40525C319.361 6.27125 318.415 7.54344 318.503 9.39425C318.557 10.4902 319.097 11.3332 320.059 11.8888C319.994 11.7968 319.94 11.701 319.867 11.6129L319.871 11.6167ZM335.252 14.529C334.375 14.529 334.382 14.529 334.425 15.3912C334.436 15.6134 334.505 15.69 334.723 15.6862C335.164 15.6747 335.609 15.713 336.045 15.6747C336.44 15.6441 336.517 15.805 336.513 16.1614C336.498 17.7401 336.505 19.3189 336.505 20.8976C336.505 21.9054 336.505 21.8939 337.505 21.8939C337.816 21.8939 337.881 21.7904 337.877 21.503C337.866 19.9933 337.869 18.4873 337.877 16.9776C337.877 16.5676 337.705 16.0311 337.942 15.7782C338.207 15.4946 338.751 15.6977 339.172 15.6824C339.789 15.6632 340.004 15.4448 340 14.8317C340 14.5903 339.931 14.5137 339.69 14.5175C338.866 14.529 338.038 14.5213 337.214 14.5213C336.559 14.5213 335.904 14.5213 335.248 14.5213L335.252 14.529ZM319.902 17.7363C319.902 16.7668 319.902 15.8012 319.902 14.8317C319.902 14.6976 319.936 14.506 319.71 14.5366C319.323 14.5941 318.902 14.3642 318.553 14.6669C318.511 14.7053 318.541 14.8317 318.541 14.916C318.534 15.2149 318.526 15.5138 318.522 15.8127C318.53 17.5179 318.534 19.2231 318.538 20.9282C318.538 21.9015 318.538 21.8862 319.518 21.8977C319.852 21.8977 319.917 21.7904 319.913 21.4839C319.902 20.3343 319.917 19.1809 319.925 18.0313C319.917 17.9317 319.906 17.8321 319.906 17.7324L319.902 17.7363ZM320.986 12.1149C321.09 11.9195 320.948 11.7585 320.898 11.5899C320.626 10.6703 320.952 10.0035 321.829 9.64332C322.668 9.29845 323.538 9.2563 324.419 9.34443C325.285 9.42873 325.274 9.4364 325.646 8.6432C325.757 8.40945 325.734 8.32515 325.469 8.283C324.891 8.19103 324.316 8.12589 323.73 8.16038C322.799 8.21402 321.898 8.39412 321.124 8.95741C320.396 9.48238 320.128 10.2794 320.404 11.0879C320.534 11.4673 320.783 11.7777 320.986 12.1187V12.1149ZM320.986 12.1111C321.009 12.1034 321.032 12.0996 321.055 12.0919C321.055 12.0919 321.055 12.0804 321.059 12.0727C321.036 12.0881 321.009 12.1034 320.986 12.1187C320.986 12.1187 320.986 12.1187 320.986 12.1149V12.1111ZM307.525 16.7515C307.525 15.8855 307.724 15.6862 308.609 15.6824C309.291 15.6786 309.977 15.6709 310.659 15.6862C310.92 15.6939 311.1 15.5943 311.238 15.3988C311.406 15.1574 311.364 14.8662 311.295 14.6209C311.242 14.4409 310.996 14.5366 310.839 14.5328C309.858 14.5252 308.873 14.5175 307.893 14.5328C306.77 14.552 306.172 15.1651 306.164 16.2802C306.157 17.56 306.157 18.8399 306.164 20.1197C306.172 21.2501 306.804 21.8786 307.938 21.8862C308.82 21.8939 309.701 21.8862 310.586 21.8862C311.341 21.8862 311.326 21.8862 311.337 21.1505C311.341 20.8401 311.268 20.729 310.939 20.7405C310.115 20.7635 309.287 20.752 308.463 20.7481C307.785 20.7443 307.536 20.4914 307.532 19.8247C307.532 19.2844 307.532 18.7441 307.532 18.2038C307.532 17.721 307.532 17.2381 307.532 16.7515H307.525ZM313.863 15.4985C313.863 14.5098 313.863 14.5175 312.851 14.5213C312.579 14.5213 312.487 14.5903 312.487 14.8739C312.498 17.0925 312.502 19.3112 312.487 21.5299C312.487 21.8556 312.617 21.8939 312.889 21.8901C314.154 21.8786 315.422 21.8862 316.687 21.8862C317.457 21.8862 317.438 21.8862 317.457 21.1352C317.465 20.8018 317.353 20.7328 317.047 20.7405C316.135 20.7596 315.227 20.7252 314.315 20.7596C313.92 20.775 313.84 20.6409 313.851 20.2768C313.878 19.3955 313.859 18.5142 313.859 17.6328C313.859 16.9201 313.859 16.2112 313.859 15.4985H313.863Z" fill="white"/>
</svg>
